<svg id="Layer_1" data-name="Layer 1" xmlns="http://www.w3.org/2000/svg" viewBox="0 0 13 13"><defs><style>.cls-1{fill:#fff;}</style></defs><title>camera-icon</title><path class="cls-1" d="M7,.5H6a2,2,0,0,1-2,2v1A3,3,0,0,0,6.5,2.15,3,3,0,0,0,9,3.5v-1A2,2,0,0,1,7,.5Z"/><path class="cls-1" d="M7,4H6A2,2,0,0,1,4,6V7A3,3,0,0,0,6.5,5.65,3,3,0,0,0,9,7V6A2,2,0,0,1,7,4Z"/><polygon class="cls-1" points="12 1.5 12 2.5 10 2.5 10 3.5 12 3.5 12 9.5 10 9.5 10 10.5 12 10.5 12 11.5 13 11.5 13 1.5 12 1.5"/><polygon class="cls-1" points="3 3.5 3 2.5 0 2.5 0 3.5 0 9.5 0 10.5 3 10.5 3 9.5 1 9.5 1 3.5 3 3.5"/><path class="cls-1" d="M6.5,9.5A1.5,1.5,0,0,1,5,8H4A2.5,2.5,0,0,0,9,8H8A1.5,1.5,0,0,1,6.5,9.5Z"/></svg>